<svg version="1.0" xmlns="http://www.w3.org/2000/svg" viewBox="0 0 1100.000000 600.000000"
 preserveAspectRatio="xMidYMid meet">

<g transform="translate(0.000000,600.000000) scale(0.200000,-0.200000)"
fill="#777777" stroke="none">
<path d="M0 1250 l0 0 0
-1200z m3000 1637 c21 -19 163 -191 442 -537 47 -58 196 -240 330 -405 134
-165 319 -392 410 -505 362 -446 446 -548 519 -629 92 -101 319 -316 576 -545
105 -93 190 -176 190 -185 0 -24 -147 -29 -181 -6 -42 28 -272 223 -454 386
-294 264 -264 230 -1015 1149 -186 228 -382 467 -434 531 -53 64 -128 156
-168 205 -66 81 -272 335 -278 342 -1 1 -80 -98 -175 -220 -331 -424 -425
-544 -575 -733 -82 -104 -166 -210 -185 -235 -126 -163 -467 -589 -487 -607
-42 -39 -65 -31 -153 60 l-80 82 -322 -330 c-177 -181 -392 -401 -478 -487
l-156 -158 -78 0 c-76 0 -116 11 -116 31 0 6 69 81 153 168 153 158 788 818
906 944 46 47 71 67 89 67 17 0 49 -24 107 -80 l82 -81 150 188 c125 157 899
1143 1176 1498 43 55 88 106 100 113 29 16 75 7 105 -21z m-177 -1558 c327
-401 519 -644 519 -656 0 -7 -12 -13 -26 -13 -22 0 -93 66 -370 341 -188 188
-347 340 -352 338 -6 -2 -59 -47 -118 -101 -137 -121 -466 -393 -486 -400 -27
-11 -43 8 -31 34 6 14 152 167 324 341 280 283 317 317 345 317 29 0 45 -16
195 -201z"/>
</g>
</svg>
